<?xml version="1.0" standalone="no"?>
<!DOCTYPE svg PUBLIC "-//W3C//DTD SVG 20010904//EN"
 "http://www.w3.org/TR/2001/REC-SVG-20010904/DTD/svg10.dtd">
<svg version="1.0" xmlns="http://www.w3.org/2000/svg"
 width="500.000000pt" height="500.000000pt" viewBox="0 0 500.000000 500.000000"
 preserveAspectRatio="xMidYMid meet">
<g transform="translate(0.000000,500.000000) scale(0.100000,-0.100000)"
fill="#000000" stroke="none">
<path d="M2336 3092 c-3 -5 -8 -28 -12 -50 -7 -47 -12 -52 -73 -76 -44 -17
-44 -17 -87 13 -23 17 -46 31 -51 31 -4 0 -44 -36 -87 -80 -80 -78 -80 -78
-50 -127 30 -48 30 -48 8 -98 -22 -48 -26 -50 -76 -60 -53 -10 -53 -10 -61
-65 -4 -30 -6 -84 -5 -120 3 -65 3 -65 56 -76 30 -7 55 -14 56 -16 1 -1 11
-25 20 -51 18 -49 18 -49 -14 -93 -18 -25 -31 -47 -29 -49 2 -2 37 -40 78 -84
40 -45 78 -81 83 -81 5 0 29 14 53 30 44 30 44 30 82 10 21 -11 43 -20 50 -20
7 0 14 -23 18 -55 4 -30 13 -59 20 -65 7 -6 40 -10 72 -8 58 3 58 3 58 153 0
150 0 150 -53 157 -172 25 -287 203 -238 370 31 109 107 179 225 209 66 17 66
17 66 160 0 144 0 144 -52 147 -28 2 -54 -1 -57 -6z m84 -142 c0 -88 -3 -122
-12 -124 -106 -29 -131 -40 -178 -83 -71 -64 -102 -129 -108 -223 -3 -60 0
-87 17 -131 39 -102 124 -176 230 -201 51 -11 51 -11 51 -135 0 -123 0 -123
-45 -123 -43 0 -44 1 -50 38 -12 70 -15 82 -28 82 -6 0 -34 12 -62 25 -49 24
-49 24 -98 -7 -26 -17 -49 -29 -50 -27 -1 3 -30 34 -65 70 -63 65 -63 65 -32
107 16 23 30 45 30 49 0 5 -11 35 -24 68 -25 60 -30 64 -98 79 -28 6 -28 6
-28 100 0 101 2 106 58 106 39 0 50 10 81 77 29 60 29 60 -1 107 -17 26 -29
48 -27 49 3 1 34 31 71 66 66 64 66 64 106 32 22 -17 44 -31 48 -31 5 0 36 11
69 25 55 22 61 27 68 62 14 61 15 63 47 63 30 0 30 0 30 -120z"/>
<path d="M2554 3087 c-2 -7 -3 -111 -2 -230 3 -217 3 -217 -58 -217 -65 0 -92
15 -80 46 4 9 -1 27 -9 40 -21 32 -60 31 -81 -1 -15 -23 -15 -27 0 -50 10 -15
26 -25 40 -25 12 0 31 -9 41 -20 15 -16 31 -20 84 -20 66 0 66 0 65 -46 -1
-45 -1 -45 -132 -47 -115 -2 -132 0 -141 16 -22 35 -91 11 -91 -32 0 -22 31
-51 53 -51 9 0 26 9 37 20 18 18 33 20 148 20 128 0 128 0 127 -45 0 -45 0
-45 -66 -45 -53 0 -69 -4 -84 -20 -10 -11 -29 -20 -41 -20 -14 0 -30 -10 -40
-25 -15 -23 -15 -27 0 -50 21 -31 59 -33 80 -3 9 12 13 31 10 43 -8 31 13 43
79 47 57 3 57 3 57 -229 0 -127 4 -234 8 -237 20 -12 83 17 109 49 24 30 32
34 60 29 43 -8 94 10 129 47 25 26 29 38 29 90 0 58 1 59 32 70 43 14 99 79
113 130 18 65 -2 141 -49 183 -21 19 -21 19 9 52 51 59 61 144 25 215 -20 37
-82 89 -116 96 -20 4 -29 11 -29 25 0 59 -67 118 -135 118 -34 0 -43 5 -57 30
-26 45 -112 77 -124 47z m74 -33 c12 -8 27 -24 33 -35 9 -17 7 -24 -10 -36
-28 -19 -16 -39 12 -20 60 38 131 23 167 -35 24 -39 25 -69 5 -107 -13 -27
-11 -41 6 -41 4 0 13 16 20 35 7 19 15 35 19 35 3 0 23 -10 45 -23 46 -25 85
-92 85 -144 0 -41 -20 -90 -48 -120 -20 -20 -24 -21 -68 -7 -58 17 -64 17 -64
0 0 -8 16 -17 38 -21 82 -15 133 -73 139 -158 3 -41 -1 -61 -19 -92 -27 -48
-94 -85 -151 -85 -44 0 -48 -23 -5 -28 20 -2 27 -10 30 -32 14 -95 -102 -167
-175 -110 -41 32 -63 24 -31 -11 14 -16 14 -19 0 -42 -14 -20 -54 -47 -71 -47
-3 0 -5 257 -5 570 0 608 -2 589 48 554z m-238 -355 c0 -12 -7 -19 -20 -19
-24 0 -38 29 -20 40 19 12 40 1 40 -21z m-122 -192 c4 -20 -25 -34 -40 -19
-15 15 -1 44 19 40 10 -2 19 -11 21 -21z m122 -198 c0 -14 -7 -19 -25 -19 -18
0 -25 5 -25 19 0 11 6 21 13 24 20 7 37 -4 37 -24z"/>
<path d="M2729 2877 c-60 -40 -76 -105 -40 -163 30 -49 117 -81 128 -48 2 7
-13 14 -36 18 -77 12 -106 94 -55 155 14 17 34 31 45 31 10 0 19 7 19 15 0 21
-22 19 -61 -8z"/>
<path d="M2652 2565 c-39 -32 -48 -74 -28 -117 18 -36 51 -62 67 -52 7 4 -2
18 -20 35 -58 52 -31 131 45 133 49 2 51 20 3 24 -27 2 -44 -3 -67 -23z"/>
<path d="M2766 2463 c-26 -26 35 -107 76 -101 27 4 27 21 1 27 -26 5 -53 31
-53 52 0 20 -13 32 -24 22z"/>
<path d="M2696 2268 c-26 -23 -39 -68 -21 -74 6 -2 17 11 25 29 9 18 25 34 38
37 30 6 33 24 6 28 -12 2 -33 -7 -48 -20z"/>
</g>
</svg>
